# xmcd CD database file
#
# Track frame offsets:
#	150
#	9322
#	22561
#	36674
#	45827
#	59748
#	74878
#	92035
#	106846
#	124695
#	145202
#	150674
#
# Disc length: 2265 seconds
#
# Revision: 0
# Processed by: cddbd v1.5.1PL0 Copyright (c) Steve Scherf et al.
# Submitted via: CDex 1.51
#
DISCID=9b08d70c
DTITLE=Mint Jam - ATMOSPHERE-POTENEKO ACADEMY ORIGINAL SOUND TRACKS- MISTRAL NOTE
DYEAR=2005
DGENRE=Pop
TTITLE0=Refrain -winter mix- (Main Theme)
TTITLE1=Walpurgis city (街)
TTITLE2=Plamaos academy (学園)
TTITLE3=P.E.lesson (体育学課)
TTITLE4=Students'dining hall (学生食堂)
TTITLE5=Academy library (学園付属図書館)
TTITLE6=Maleficaster central park (中央公園)
TTITLE7=One's favorite teashop (喫茶店)
TTITLE8=New year's celebration (新年祭)
TTITLE9=Ryokan with a hot spring (湯)
TTITLE10=Kung-fu Kitten -Memorial-
TTITLE11=Drug of Passion -more passionate style-
EXTD=YEAR: 2005
EXTT0=
EXTT1=
EXTT2=
EXTT3=
EXTT4=
EXTT5=
EXTT6=
EXTT7=
EXTT8=
EXTT9=
EXTT10=
EXTT11=
PLAYORDER=
